Coordinates
version=1
nRows=5
nColumns=40
inDegrees=yes

Units are S.I. units (second, meters, Newtons, ...)
If the header above contains a line with 'inDegrees', this indicates whether rotational values are in degrees (yes) or radians (no).

endheader
time	pelvis_tilt	pelvis_list	pelvis_rotation	pelvis_tx	pelvis_ty	pelvis_tz	hip_flexion_r	hip_adduction_r	hip_rotation_r	knee_angle_r	knee_angle_r_beta	ankle_angle_r	subtalar_angle_r	mtp_angle_r	hip_flexion_l	hip_adduction_l	hip_rotation_l	knee_angle_l	knee_angle_l_beta	ankle_angle_l	subtalar_angle_l	mtp_angle_l	lumbar_extension	lumbar_bending	lumbar_rotation	arm_flex_r	arm_add_r	arm_rot_r	elbow_flex_r	pro_sup_r	wrist_flex_r	wrist_dev_r	arm_flex_l	arm_add_l	arm_rot_l	elbow_flex_l	pro_sup_l	wrist_flex_l	wrist_dev_l
      2.81000000	    -13.80582883	      2.36736516	      4.00669325	     -0.26520965	      0.91174583	     -0.99640345	     16.23711272	     -9.17081644	     -1.77327259	     83.21941971	      1.45245288	     -3.86279112	      0.00000000	      0.00000000	     44.09701050	      4.90483814	     -3.88800729	     62.39332186	      1.08896890	     20.80022119	      0.00000000	      0.00000000	      1.73001573	     -8.67049856	     -5.78977862	     89.92094669	     -5.49097040	     42.04480417	     48.26010631	     84.53368214	      0.00000000	      0.00000000	     89.94793029	    -14.96896341	     41.08136207	     56.36633769	     80.48866529	      0.00000000	      0.00000000
      2.81500000	    -13.92046999	      2.40702042	      4.02500367	     -0.26546911	      0.91084562	     -0.99646851	     16.37160066	     -9.17747248	     -1.73068404	     83.28095716	      1.45352691	     -3.89364334	      0.00000000	      0.00000000	     44.32483038	      4.93061187	     -3.94532564	     62.58684085	      1.09234644	     20.86746353	      0.00000000	      0.00000000	      1.78455579	     -8.73175190	     -5.83286419	     89.92116715	     -5.47899619	     42.07963272	     48.25148064	     84.43759185	      0.00000000	      0.00000000	     89.94799119	    -14.98291286	     40.88234952	     56.41359506	     81.78122753	      0.00000000	      0.00000000
      2.82000000	    -14.00665173	      2.42708256	      4.05363377	     -0.26555625	      0.91004452	     -0.99666560	     16.44918319	     -9.19165374	     -1.73496152	     83.30395114	      1.45392823	     -3.95518900	      0.00000000	      0.00000000	     44.50142483	      4.97615673	     -3.97617466	     62.75007617	      1.09519544	     20.93646724	      0.00000000	      0.00000000	      1.83113208	     -8.75140204	     -5.93282533	     89.92210414	     -5.51655516	     42.71241171	     48.37496096	     79.56883489	      0.00000000	      0.00000000	     89.94792078	    -15.12160806	     41.17835589	     56.60960502	     76.71781802	      0.00000000	      0.00000000
      2.82500000	    -14.14578131	      2.48641553	      4.09564903	     -0.26587276	      0.90916533	     -0.99679599	     16.61293378	     -9.26307120	     -1.75011368	     83.38880491	      1.45540920	     -3.97549193	      0.00000000	      0.00000000	     44.74066017	      5.03537366	     -4.05163145	     62.89205070	      1.09767336	     20.92870599	      0.00000000	      0.00000000	      1.91226894	     -8.82709117	     -5.95316230	     89.92151852	     -5.44777997	     42.27729611	     48.17023389	     84.49459691	      0.00000000	      0.00000000	     89.94829690	    -15.06051631	     40.83836187	     56.51378747	     81.77633037	      0.00000000	      0.00000000
      2.83000000	    -14.22750958	      2.57420405	      4.17187196	     -0.26617783	      0.90838107	     -0.99697813	     16.71147088	     -9.38425745	     -1.82503120	     83.49008157	      1.45717682	     -3.96022619	      0.00000000	      0.00000000	     44.91371208	      5.14471081	     -4.11099812	     63.02742319	      1.10003605	     20.96163645	      0.00000000	      0.00000000	      1.91912173	     -8.94195325	     -6.02033949	     89.92139688	     -5.45379669	     42.26594403	     48.14634550	     84.75097537	      0.00000000	      0.00000000	     89.94841441	    -15.00432110	     40.86343568	     56.52579559	     80.24420172	      0.00000000	      0.00000000
